HIERARCHY
ROOT Model_Hips
{
	OFFSET 0.000000 96.915077 0.000000
	CHANNELS 6 Xposition Yposition Zposition Xrotation Yrotation Zrotation
	JOINT Model_Spine
	{
		OFFSET 0.000000 11.137703 -1.289900
		CHANNELS 3 Xrotation Yrotation Zrotation
		JOINT Model_Spine1
		{
			OFFSET 0.000000 12.993942 -1.504922
			CHANNELS 3 Xrotation Yrotation Zrotation
			JOINT Model_Spine2
			{
				OFFSET 0.000000 14.850220 -1.719911
				CHANNELS 3 Xrotation Yrotation Zrotation
				JOINT Model_Neck
				{
					OFFSET 0.000000 16.706543 -1.934903
					CHANNELS 3 Xrotation Yrotation Zrotation
					JOINT Model_Head
					{
						OFFSET 0.000000 10.471298 2.002100
						CHANNELS 3 Xrotation Yrotation Zrotation
						JOINT Model_HeadTop_End
						{
							OFFSET 0.000000 20.842606 3.985100
							CHANNELS 3 Xrotation Yrotation Zrotation
							End Site
							{
								OFFSET 0.000000 21.220154 0.000000
							}
						}
					}
				}
				JOINT Model_LeftShoulder
				{
					OFFSET 7.008500 14.768600 -1.919946
					CHANNELS 3 Xrotation Yrotation Zrotation
					JOINT Model_LeftArm
					{
						OFFSET 14.126271 -3.718048 0.029937
						CHANNELS 3 Xrotation Yrotation Zrotation
						JOINT Model_LeftForeArm
						{
							OFFSET 28.282801 0.000000 0.000000
							CHANNELS 3 Xrotation Yrotation Zrotation
							JOINT Model_LeftHand
							{
								OFFSET 26.204689 0.000000 0.000000
								CHANNELS 3 Xrotation Yrotation Zrotation
								End Site
								{
									OFFSET 26.204704 0.000000 0.000000
								}
							}
						}
					}
				}
				JOINT Model_RightShoulder
				{
					OFFSET -7.008500 14.768555 -1.949840
					CHANNELS 3 Xrotation Yrotation Zrotation
					JOINT Model_RightArm
					{
						OFFSET -14.126281 -3.718018 -0.029932
						CHANNELS 3 Xrotation Yrotation Zrotation
						JOINT Model_RightForeArm
						{
							OFFSET -28.283798 0.000000 -0.000001
							CHANNELS 3 Xrotation Yrotation Zrotation
							JOINT Model_RightHand
							{
								OFFSET -26.204193 0.000000 -0.000001
								CHANNELS 3 Xrotation Yrotation Zrotation
								End Site
								{
									OFFSET -26.204208 0.000000 -0.000001
								}
							}
						}
					}
				}
			}
		}
	}
	JOINT Model_LeftUpLeg
	{
		OFFSET 8.327700 -6.193199 -0.402800
		CHANNELS 3 Xrotation Yrotation Zrotation
		JOINT Model_LeftLeg
		{
			OFFSET 0.735802 -42.108742 -0.610721
			CHANNELS 3 Xrotation Yrotation Zrotation
			JOINT Model_LeftFoot
			{
				OFFSET -0.735806 -36.833748 -0.172876
				CHANNELS 3 Xrotation Yrotation Zrotation
				JOINT Model_LeftToeBase
				{
					OFFSET -0.565857 -11.977769 16.297714
					CHANNELS 3 Xrotation Yrotation Zrotation
					JOINT Model_LeftToe_End
					{
						OFFSET -0.111712 -0.312793 7.857784
						CHANNELS 3 Xrotation Yrotation Zrotation
						End Site
						{
							OFFSET -0.111712 -0.312793 7.857784
						}
					}
				}
			}
		}
	}
	JOINT Model_RightUpLeg
	{
		OFFSET -8.327700 -6.193199 -0.516500
		CHANNELS 3 Xrotation Yrotation Zrotation
		JOINT Model_RightLeg
		{
			OFFSET -0.735785 -42.108738 -0.434061
			CHANNELS 3 Xrotation Yrotation Zrotation
			JOINT Model_RightFoot
			{
				OFFSET 0.735776 -36.833748 -0.021630
				CHANNELS 3 Xrotation Yrotation Zrotation
				JOINT Model_RightToeBase
				{
					OFFSET 0.565817 -11.977745 15.903093
					CHANNELS 3 Xrotation Yrotation Zrotation
					JOINT Model_RightToe_End
					{
						OFFSET 0.111702 -0.312791 7.811342
						CHANNELS 3 Xrotation Yrotation Zrotation
						End Site
						{
							OFFSET 0.111702 -0.312791 7.811342
						}
					}
				}
			}
		}
	}
}
MOTION
Frames: 5
Frame Time: 0.016667
-0.233976 96.083450 5.030849 -7.306269 10.090691 4.328714 13.133843 0.541421 -1.290756 1.653501 0.170429 0.452088 1.652925 0.174036 0.449313 1.669412 -3.125316 0.419432 -3.222790 -3.978008 0.190460 0.000000 -0.000000 0.000000 0.931498 3.909891 -15.013464 21.455470 -17.786712 -46.931411 0.000073 -100.159349 0.000015 -0.000001 0.000000 0.000000 0.011280 9.636401 20.279467 -22.205657 -10.905054 52.987136 0.000017 14.445039 -0.000019 -0.000000 -0.000000 -0.000001 -12.803015 -1.972308 0.344486 53.310159 -5.274017 -0.382928 0.700858 4.237738 -10.882494 -27.761784 -2.583674 6.161504 0.000001 -0.000000 -0.000000 -0.760377 -0.411531 -0.005497 23.567872 -10.033663 0.099164 -15.933855 -2.572608 -0.431707 -2.003100 -0.000000 0.000001 0.000000 -0.000000 0.000000 
-0.141700 96.238472 6.165637 -7.300706 10.061627 4.831338 13.062746 0.811741 -1.723902 1.615115 0.218765 0.286848 1.614074 0.221204 0.282405 1.828106 -3.120050 0.328028 -3.066241 -3.963978 0.099366 -0.000000 -0.000001 -0.000000 0.937961 3.962166 -15.066648 21.477434 -17.653112 -47.067359 -0.000029 -100.328710 -0.000064 -0.000002 -0.000000 0.000002 0.021406 9.748092 19.907423 -22.239692 -9.732899 53.252239 0.000019 14.967902 -0.000023 0.000002 0.000001 0.000000 -13.721386 -1.890122 -0.670798 50.196617 -4.142317 -0.289890 -2.506569 4.324977 -10.745775 -19.975189 -2.024196 6.635729 0.000001 -0.000001 0.000000 0.636642 -0.927394 -0.617167 22.345423 -9.559447 0.201022 -16.139677 -2.459884 -0.570060 -1.964801 -0.000001 0.000000 0.000000 -0.000000 0.000000 
-0.026352 96.340416 7.295066 -7.203427 10.026918 5.278110 12.903162 1.127313 -2.113962 1.588477 0.274320 0.140093 1.586970 0.275683 0.134034 1.956568 -3.114276 0.217223 -2.940044 -3.948243 -0.011112 -0.000001 -0.000000 0.000000 0.953782 4.071201 -15.232954 21.473118 -17.594058 -47.119457 -0.000033 -100.391295 -0.000080 -0.000002 -0.000002 0.000002 0.032538 9.847709 19.552562 -22.248059 -8.543576 53.440425 0.000008 15.559977 -0.000001 0.000000 0.000002 -0.000002 -14.768411 -1.923375 -1.519464 46.681625 -2.925656 -0.224513 -4.739385 4.370544 -11.167569 -11.199114 -1.300617 7.412587 -0.000001 -0.000002 0.000000 1.832241 -1.401855 -1.180576 21.323075 -9.152230 0.293761 -16.432028 -2.336086 -0.650661 -1.962262 0.000000 0.000000 0.000000 -0.000000 0.000000 
0.111945 96.386093 8.421094 -7.008366 9.943788 5.644787 12.692812 1.484832 -2.451138 1.568300 0.336208 0.006623 1.566386 0.336569 -0.001028 2.064384 -3.107956 0.093504 -2.834515 -3.931115 -0.134472 -0.000000 0.000001 -0.000000 0.975858 4.211218 -15.468668 21.446531 -17.570387 -47.143878 0.000009 -100.404115 -0.000009 -0.000003 -0.000001 0.000001 0.043754 9.945914 19.211154 -22.239453 -7.361151 53.570239 0.000016 16.199867 0.000001 -0.000000 -0.000002 0.000000 -16.006376 -2.000615 -2.226052 43.241525 -1.699387 -0.242406 -6.634743 4.415004 -11.405513 -4.288057 -0.320493 4.331448 -0.000002 0.000000 0.000001 2.787370 -1.812968 -1.686445 20.584298 -8.774697 0.385912 -16.863095 -2.208787 -0.684551 -1.979791 -0.000001 0.000000 0.000000 -0.000000 0.000000 
0.271448 96.451248 9.699802 -6.721542 9.780047 5.907502 12.431365 1.899708 -2.706926 1.553797 0.406342 -0.110706 1.551589 0.405778 -0.119927 2.148204 -3.100567 -0.044591 -2.753009 -3.911926 -0.272135 0.000000 0.000000 -0.000000 1.004840 4.379314 -15.775485 21.388401 -17.573117 -47.168634 0.000019 -100.380162 -0.000002 -0.000002 -0.000000 -0.000000 0.054090 10.048978 18.887003 -22.208152 -6.206420 53.626397 0.000006 16.894924 0.000006 -0.000000 0.000000 -0.000002 -17.237149 -2.073552 -2.825325 39.977329 -0.323146 -0.130994 -8.844663 4.478053 -11.606459 0.990959 0.000002 0.000003 -0.000001 0.000000 0.000001 3.990806 -2.313030 -2.130967 19.314892 -8.217927 0.515757 -17.104462 -2.080486 -0.799172 -2.022830 -0.000000 0.000000 0.000000 -0.000000 0.000000 
